<svg xmlns="http://www.w3.org/2000/svg" version="1.1" xmlns:xlink="http://www.w3.org/1999/xlink" xmlns:svgjs="http://svgjs.dev/svgjs" width="1440" height="560" preserveAspectRatio="none" viewBox="0 0 1440 560"><g mask="url(&quot;#SvgjsMask1000&quot;)" fill="none"><rect width="1440" height="560" x="0" y="0" fill="#0e2a47"></rect><path d="M-78.23 403.57L-78.23 403.57" stroke="#132e65" stroke-width="1.5"></path><path d="M-78.23 403.57L-87.13 517.66" stroke="#132e65" stroke-width="1.5"></path><path d="M-78.23 403.57L82.87 547.21" stroke="#132e65" stroke-width="1.5"></path><path d="M-87.13 517.66L-87.13 517.66" stroke="#132e65" stroke-width="1.5"></path><path d="M-87.13 517.66L82.87 547.21" stroke="#132e65" stroke-width="1.5"></path><path d="M-87.13 517.66L-96.54 691.62" stroke="#132e65" stroke-width="1.5"></path><path d="M-96.54 691.62L-96.54 691.62" stroke="#132e65" stroke-width="1.5"></path><path d="M-96.54 691.62L110.37 696.87" stroke="#132e65" stroke-width="1.5"></path><path d="M-96.54 691.62L82.87 547.21" stroke="#132e65" stroke-width="1.5"></path><path d="M-96.54 691.62L-78.23 403.57" stroke="#132e65" stroke-width="1.5"></path><path d="M-96.54 691.62L216.95 651.35" stroke="#132e65" stroke-width="1.5"></path><path d="M-96.54 691.62L226.74 503.03" stroke="#132e65" stroke-width="1.5"></path><path d="M82.87 547.21L82.87 547.21" stroke="#132e65" stroke-width="1.5"></path><path d="M82.87 547.21L226.74 503.03" stroke="#132e65" stroke-width="1.5"></path><path d="M82.87 547.21L110.37 696.87" stroke="#132e65" stroke-width="1.5"></path><path d="M82.87 547.21L216.95 651.35" stroke="#132e65" stroke-width="1.5"></path><path d="M110.37 696.87L110.37 696.87" stroke="#132e65" stroke-width="1.5"></path><path d="M110.37 696.87L216.95 651.35" stroke="#132e65" stroke-width="1.5"></path><path d="M110.37 696.87L226.74 503.03" stroke="#132e65" stroke-width="1.5"></path><path d="M205.62 365.83L205.62 365.83" stroke="#132e65" stroke-width="1.5"></path><path d="M205.62 365.83L339.52 382.67" stroke="#132e65" stroke-width="1.5"></path><path d="M205.62 365.83L226.74 503.03" stroke="#132e65" stroke-width="1.5"></path><path d="M205.62 365.83L360.96 495.59" stroke="#132e65" stroke-width="1.5"></path><path d="M205.62 365.83L82.87 547.21" stroke="#132e65" stroke-width="1.5"></path><path d="M226.74 503.03L226.74 503.03" stroke="#132e65" stroke-width="1.5"></path><path d="M226.74 503.03L360.96 495.59" stroke="#132e65" stroke-width="1.5"></path><path d="M226.74 503.03L216.95 651.35" stroke="#132e65" stroke-width="1.5"></path><path d="M216.95 651.35L216.95 651.35" stroke="#132e65" stroke-width="1.5"></path><path d="M339.52 382.67L339.52 382.67" stroke="#132e65" stroke-width="1.5"></path><path d="M339.52 382.67L360.96 495.59" stroke="#132e65" stroke-width="1.5"></path><path d="M360.96 495.59L360.96 495.59" stroke="#132e65" stroke-width="1.5"></path><path d="M390.75 705.42L390.75 705.42" stroke="#132e65" stroke-width="1.5"></path><path d="M390.75 705.42L516.32 700.99" stroke="#132e65" stroke-width="1.5"></path><path d="M390.75 705.42L216.95 651.35" stroke="#132e65" stroke-width="1.5"></path><path d="M390.75 705.42L360.96 495.59" stroke="#132e65" stroke-width="1.5"></path><path d="M390.75 705.42L226.74 503.03" stroke="#132e65" stroke-width="1.5"></path><path d="M390.75 705.42L556.38 493.28" stroke="#132e65" stroke-width="1.5"></path><path d="M390.75 705.42L110.37 696.87" stroke="#132e65" stroke-width="1.5"></path><path d="M517.57 355.62L517.57 355.62" stroke="#132e65" stroke-width="1.5"></path><path d="M517.57 355.62L556.38 493.28" stroke="#132e65" stroke-width="1.5"></path><path d="M517.57 355.62L339.52 382.67" stroke="#132e65" stroke-width="1.5"></path><path d="M517.57 355.62L665.11 243.51" stroke="#132e65" stroke-width="1.5"></path><path d="M517.57 355.62L707.5 359.18" stroke="#132e65" stroke-width="1.5"></path><path d="M517.57 355.62L360.96 495.59" stroke="#132e65" stroke-width="1.5"></path><path d="M517.57 355.62L667.01 537.4" stroke="#132e65" stroke-width="1.5"></path><path d="M556.38 493.28L556.38 493.28" stroke="#132e65" stroke-width="1.5"></path><path d="M556.38 493.28L667.01 537.4" stroke="#132e65" stroke-width="1.5"></path><path d="M556.38 493.28L360.96 495.59" stroke="#132e65" stroke-width="1.5"></path><path d="M516.32 700.99L516.32 700.99" stroke="#132e65" stroke-width="1.5"></path><path d="M516.32 700.99L710.3 709.69" stroke="#132e65" stroke-width="1.5"></path><path d="M516.32 700.99L556.38 493.28" stroke="#132e65" stroke-width="1.5"></path><path d="M516.32 700.99L667.01 537.4" stroke="#132e65" stroke-width="1.5"></path><path d="M516.32 700.99L360.96 495.59" stroke="#132e65" stroke-width="1.5"></path><path d="M665.11 243.51L665.11 243.51" stroke="#132e65" stroke-width="1.5"></path><path d="M665.11 243.51L707.5 359.18" stroke="#132e65" stroke-width="1.5"></path><path d="M665.11 243.51L845.12 199.18" stroke="#132e65" stroke-width="1.5"></path><path d="M665.11 243.51L846.69 75.55" stroke="#132e65" stroke-width="1.5"></path><path d="M665.11 243.51L861.8 393.83" stroke="#132e65" stroke-width="1.5"></path><path d="M707.5 359.18L707.5 359.18" stroke="#132e65" stroke-width="1.5"></path><path d="M667.01 537.4L667.01 537.4" stroke="#132e65" stroke-width="1.5"></path><path d="M667.01 537.4L798.05 520.6" stroke="#132e65" stroke-width="1.5"></path><path d="M667.01 537.4L710.3 709.69" stroke="#132e65" stroke-width="1.5"></path><path d="M667.01 537.4L707.5 359.18" stroke="#132e65" stroke-width="1.5"></path><path d="M710.3 709.69L710.3 709.69" stroke="#132e65" stroke-width="1.5"></path><path d="M710.3 709.69L855.7 679.85" stroke="#132e65" stroke-width="1.5"></path><path d="M710.3 709.69L798.05 520.6" stroke="#132e65" stroke-width="1.5"></path><path d="M846.69 75.55L846.69 75.55" stroke="#132e65" stroke-width="1.5"></path><path d="M846.69 75.55L946.22 74.58" stroke="#132e65" stroke-width="1.5"></path><path d="M845.12 199.18L845.12 199.18" stroke="#132e65" stroke-width="1.5"></path><path d="M845.12 199.18L846.69 75.55" stroke="#132e65" stroke-width="1.5"></path><path d="M845.12 199.18L946.22 74.58" stroke="#132e65" stroke-width="1.5"></path><path d="M861.8 393.83L861.8 393.83" stroke="#132e65" stroke-width="1.5"></path><path d="M861.8 393.83L960.4 393.03" stroke="#132e65" stroke-width="1.5"></path><path d="M861.8 393.83L798.05 520.6" stroke="#132e65" stroke-width="1.5"></path><path d="M861.8 393.83L707.5 359.18" stroke="#132e65" stroke-width="1.5"></path><path d="M861.8 393.83L970.81 519.2" stroke="#132e65" stroke-width="1.5"></path><path d="M861.8 393.83L845.12 199.18" stroke="#132e65" stroke-width="1.5"></path><path d="M861.8 393.83L1099.16 364.18" stroke="#132e65" stroke-width="1.5"></path><path d="M798.05 520.6L798.05 520.6" stroke="#132e65" stroke-width="1.5"></path><path d="M798.05 520.6L855.7 679.85" stroke="#132e65" stroke-width="1.5"></path><path d="M798.05 520.6L970.81 519.2" stroke="#132e65" stroke-width="1.5"></path><path d="M798.05 520.6L707.5 359.18" stroke="#132e65" stroke-width="1.5"></path><path d="M855.7 679.85L855.7 679.85" stroke="#132e65" stroke-width="1.5"></path><path d="M855.7 679.85L982.22 679.65" stroke="#132e65" stroke-width="1.5"></path><path d="M855.7 679.85L970.81 519.2" stroke="#132e65" stroke-width="1.5"></path><path d="M855.7 679.85L667.01 537.4" stroke="#132e65" stroke-width="1.5"></path><path d="M855.7 679.85L1124.87 707.86" stroke="#132e65" stroke-width="1.5"></path><path d="M998.36 -87.3L998.36 -87.3" stroke="#132e65" stroke-width="1.5"></path><path d="M998.36 -87.3L1090.12 -72.75" stroke="#132e65" stroke-width="1.5"></path><path d="M998.36 -87.3L946.22 74.58" stroke="#132e65" stroke-width="1.5"></path><path d="M998.36 -87.3L846.69 75.55" stroke="#132e65" stroke-width="1.5"></path><path d="M998.36 -87.3L1119.72 107.69" stroke="#132e65" stroke-width="1.5"></path><path d="M998.36 -87.3L1260.58 -69.47" stroke="#132e65" stroke-width="1.5"></path><path d="M998.36 -87.3L1247.45 62.46" stroke="#132e65" stroke-width="1.5"></path><path d="M946.22 74.58L946.22 74.58" stroke="#132e65" stroke-width="1.5"></path><path d="M960.4 393.03L960.4 393.03" stroke="#132e65" stroke-width="1.5"></path><path d="M960.4 393.03L970.81 519.2" stroke="#132e65" stroke-width="1.5"></path><path d="M970.81 519.2L970.81 519.2" stroke="#132e65" stroke-width="1.5"></path><path d="M970.81 519.2L1101.01 525.31" stroke="#132e65" stroke-width="1.5"></path><path d="M982.22 679.65L982.22 679.65" stroke="#132e65" stroke-width="1.5"></path><path d="M982.22 679.65L1124.87 707.86" stroke="#132e65" stroke-width="1.5"></path><path d="M982.22 679.65L970.81 519.2" stroke="#132e65" stroke-width="1.5"></path><path d="M982.22 679.65L1101.01 525.31" stroke="#132e65" stroke-width="1.5"></path><path d="M982.22 679.65L798.05 520.6" stroke="#132e65" stroke-width="1.5"></path><path d="M982.22 679.65L710.3 709.69" stroke="#132e65" stroke-width="1.5"></path><path d="M1090.12 -72.75L1090.12 -72.75" stroke="#132e65" stroke-width="1.5"></path><path d="M1090.12 -72.75L1260.58 -69.47" stroke="#132e65" stroke-width="1.5"></path><path d="M1119.72 107.69L1119.72 107.69" stroke="#132e65" stroke-width="1.5"></path><path d="M1119.72 107.69L1100.18 206.31" stroke="#132e65" stroke-width="1.5"></path><path d="M1119.72 107.69L1247.45 62.46" stroke="#132e65" stroke-width="1.5"></path><path d="M1119.72 107.69L946.22 74.58" stroke="#132e65" stroke-width="1.5"></path><path d="M1119.72 107.69L1090.12 -72.75" stroke="#132e65" stroke-width="1.5"></path><path d="M1119.72 107.69L1260.1 243.53" stroke="#132e65" stroke-width="1.5"></path><path d="M1119.72 107.69L1260.58 -69.47" stroke="#132e65" stroke-width="1.5"></path><path d="M1100.18 206.31L1100.18 206.31" stroke="#132e65" stroke-width="1.5"></path><path d="M1100.18 206.31L1099.16 364.18" stroke="#132e65" stroke-width="1.5"></path><path d="M1100.18 206.31L1260.1 243.53" stroke="#132e65" stroke-width="1.5"></path><path d="M1100.18 206.31L946.22 74.58" stroke="#132e65" stroke-width="1.5"></path><path d="M1099.16 364.18L1099.16 364.18" stroke="#132e65" stroke-width="1.5"></path><path d="M1099.16 364.18L960.4 393.03" stroke="#132e65" stroke-width="1.5"></path><path d="M1099.16 364.18L1101.01 525.31" stroke="#132e65" stroke-width="1.5"></path><path d="M1099.16 364.18L1295.09 352.48" stroke="#132e65" stroke-width="1.5"></path><path d="M1099.16 364.18L1260.1 243.53" stroke="#132e65" stroke-width="1.5"></path><path d="M1101.01 525.31L1101.01 525.31" stroke="#132e65" stroke-width="1.5"></path><path d="M1101.01 525.31L1279.9 505.67" stroke="#132e65" stroke-width="1.5"></path><path d="M1101.01 525.31L1124.87 707.86" stroke="#132e65" stroke-width="1.5"></path><path d="M1101.01 525.31L960.4 393.03" stroke="#132e65" stroke-width="1.5"></path><path d="M1124.87 707.86L1124.87 707.86" stroke="#132e65" stroke-width="1.5"></path><path d="M1124.87 707.86L1269.58 669.82" stroke="#132e65" stroke-width="1.5"></path><path d="M1260.58 -69.47L1260.58 -69.47" stroke="#132e65" stroke-width="1.5"></path><path d="M1260.58 -69.47L1247.45 62.46" stroke="#132e65" stroke-width="1.5"></path><path d="M1260.58 -69.47L1419.35 -89.15" stroke="#132e65" stroke-width="1.5"></path><path d="M1247.45 62.46L1247.45 62.46" stroke="#132e65" stroke-width="1.5"></path><path d="M1260.1 243.53L1260.1 243.53" stroke="#132e65" stroke-width="1.5"></path><path d="M1260.1 243.53L1295.09 352.48" stroke="#132e65" stroke-width="1.5"></path><path d="M1260.1 243.53L1426.26 199.22" stroke="#132e65" stroke-width="1.5"></path><path d="M1260.1 243.53L1247.45 62.46" stroke="#132e65" stroke-width="1.5"></path><path d="M1295.09 352.48L1295.09 352.48" stroke="#132e65" stroke-width="1.5"></path><path d="M1295.09 352.48L1435.69 370.24" stroke="#132e65" stroke-width="1.5"></path><path d="M1295.09 352.48L1279.9 505.67" stroke="#132e65" stroke-width="1.5"></path><path d="M1279.9 505.67L1279.9 505.67" stroke="#132e65" stroke-width="1.5"></path><path d="M1279.9 505.67L1433.79 555.24" stroke="#132e65" stroke-width="1.5"></path><path d="M1279.9 505.67L1269.58 669.82" stroke="#132e65" stroke-width="1.5"></path><path d="M1269.58 669.82L1269.58 669.82" stroke="#132e65" stroke-width="1.5"></path><path d="M1269.58 669.82L1440.89 691.09" stroke="#132e65" stroke-width="1.5"></path><path d="M1269.58 669.82L1433.79 555.24" stroke="#132e65" stroke-width="1.5"></path><path d="M1269.58 669.82L1101.01 525.31" stroke="#132e65" stroke-width="1.5"></path><path d="M1269.58 669.82L982.22 679.65" stroke="#132e65" stroke-width="1.5"></path><path d="M1419.35 -89.15L1419.35 -89.15" stroke="#132e65" stroke-width="1.5"></path><path d="M1419.35 -89.15L1554 -109.08" stroke="#132e65" stroke-width="1.5"></path><path d="M1419.35 -89.15L1433.16 73.31" stroke="#132e65" stroke-width="1.5"></path><path d="M1433.16 73.31L1433.16 73.31" stroke="#132e65" stroke-width="1.5"></path><path d="M1433.16 73.31L1426.26 199.22" stroke="#132e65" stroke-width="1.5"></path><path d="M1433.16 73.31L1594.56 51.52" stroke="#132e65" stroke-width="1.5"></path><path d="M1426.26 199.22L1426.26 199.22" stroke="#132e65" stroke-width="1.5"></path><path d="M1426.26 199.22L1435.69 370.24" stroke="#132e65" stroke-width="1.5"></path><path d="M1435.69 370.24L1435.69 370.24" stroke="#132e65" stroke-width="1.5"></path><path d="M1435.69 370.24L1565.13 377.67" stroke="#132e65" stroke-width="1.5"></path><path d="M1433.79 555.24L1433.79 555.24" stroke="#132e65" stroke-width="1.5"></path><path d="M1433.79 555.24L1440.89 691.09" stroke="#132e65" stroke-width="1.5"></path><path d="M1433.79 555.24L1572.09 542.17" stroke="#132e65" stroke-width="1.5"></path><path d="M1433.79 555.24L1435.69 370.24" stroke="#132e65" stroke-width="1.5"></path><path d="M1440.89 691.09L1440.89 691.09" stroke="#132e65" stroke-width="1.5"></path><path d="M1440.89 691.09L1606.3 678.27" stroke="#132e65" stroke-width="1.5"></path><path d="M1440.89 691.09L1572.09 542.17" stroke="#132e65" stroke-width="1.5"></path><path d="M1440.89 691.09L1279.9 505.67" stroke="#132e65" stroke-width="1.5"></path><path d="M1554 -109.08L1554 -109.08" stroke="#132e65" stroke-width="1.5"></path><path d="M1554 -109.08L1594.56 51.52" stroke="#132e65" stroke-width="1.5"></path><path d="M1554 -109.08L1433.16 73.31" stroke="#132e65" stroke-width="1.5"></path><path d="M1594.56 51.52L1594.56 51.52" stroke="#132e65" stroke-width="1.5"></path><path d="M1565.13 377.67L1565.13 377.67" stroke="#132e65" stroke-width="1.5"></path><path d="M1565.13 377.67L1572.09 542.17" stroke="#132e65" stroke-width="1.5"></path><path d="M1565.13 377.67L1433.79 555.24" stroke="#132e65" stroke-width="1.5"></path><path d="M1572.09 542.17L1572.09 542.17" stroke="#132e65" stroke-width="1.5"></path><path d="M1572.09 542.17L1606.3 678.27" stroke="#132e65" stroke-width="1.5"></path><path d="M1572.09 542.17L1435.69 370.24" stroke="#132e65" stroke-width="1.5"></path><path d="M1606.3 678.27L1606.3 678.27" stroke="#132e65" stroke-width="1.5"></path><circle r="5" cx="-78.23" cy="403.57" fill="#132e65"></circle><circle r="5" cx="-87.13" cy="517.66" fill="#132e65"></circle><circle r="5" cx="-96.54" cy="691.62" fill="#132e65"></circle><circle r="5" cx="82.87" cy="547.21" fill="#132e65"></circle><circle r="5" cx="110.37" cy="696.87" fill="#132e65"></circle><circle r="5" cx="205.62" cy="365.83" fill="#132e65"></circle><circle r="5" cx="226.74" cy="503.03" fill="#132e65"></circle><circle r="5" cx="216.95" cy="651.35" fill="#132e65"></circle><circle r="5" cx="339.52" cy="382.67" fill="#132e65"></circle><circle r="5" cx="360.96" cy="495.59" fill="#132e65"></circle><circle r="5" cx="390.75" cy="705.42" fill="#132e65"></circle><circle r="5" cx="517.57" cy="355.62" fill="#132e65"></circle><circle r="5" cx="556.38" cy="493.28" fill="#132e65"></circle><circle r="5" cx="516.32" cy="700.99" fill="#132e65"></circle><circle r="5" cx="665.11" cy="243.51" fill="#132e65"></circle><circle r="5" cx="707.5" cy="359.18" fill="#132e65"></circle><circle r="5" cx="667.01" cy="537.4" fill="#132e65"></circle><circle r="5" cx="710.3" cy="709.69" fill="#132e65"></circle><circle r="5" cx="846.69" cy="75.55" fill="#132e65"></circle><circle r="5" cx="845.12" cy="199.18" fill="#132e65"></circle><circle r="5" cx="861.8" cy="393.83" fill="#132e65"></circle><circle r="5" cx="798.05" cy="520.6" fill="#132e65"></circle><circle r="5" cx="855.7" cy="679.85" fill="#132e65"></circle><circle r="5" cx="998.36" cy="-87.3" fill="#132e65"></circle><circle r="5" cx="946.22" cy="74.58" fill="#132e65"></circle><circle r="5" cx="960.4" cy="393.03" fill="#132e65"></circle><circle r="5" cx="970.81" cy="519.2" fill="#132e65"></circle><circle r="5" cx="982.22" cy="679.65" fill="#132e65"></circle><circle r="5" cx="1090.12" cy="-72.75" fill="#132e65"></circle><circle r="5" cx="1119.72" cy="107.69" fill="#132e65"></circle><circle r="5" cx="1100.18" cy="206.31" fill="#132e65"></circle><circle r="5" cx="1099.16" cy="364.18" fill="#132e65"></circle><circle r="5" cx="1101.01" cy="525.31" fill="#132e65"></circle><circle r="5" cx="1124.87" cy="707.86" fill="#132e65"></circle><circle r="5" cx="1260.58" cy="-69.47" fill="#132e65"></circle><circle r="5" cx="1247.45" cy="62.46" fill="#132e65"></circle><circle r="5" cx="1260.1" cy="243.53" fill="#132e65"></circle><circle r="5" cx="1295.09" cy="352.48" fill="#132e65"></circle><circle r="5" cx="1279.9" cy="505.67" fill="#132e65"></circle><circle r="5" cx="1269.58" cy="669.82" fill="#132e65"></circle><circle r="5" cx="1419.35" cy="-89.15" fill="#132e65"></circle><circle r="5" cx="1433.16" cy="73.31" fill="#132e65"></circle><circle r="5" cx="1426.26" cy="199.22" fill="#132e65"></circle><circle r="5" cx="1435.69" cy="370.24" fill="#132e65"></circle><circle r="5" cx="1433.79" cy="555.24" fill="#132e65"></circle><circle r="5" cx="1440.89" cy="691.09" fill="#132e65"></circle><circle r="5" cx="1554" cy="-109.08" fill="#132e65"></circle><circle r="5" cx="1594.56" cy="51.52" fill="#132e65"></circle><circle r="5" cx="1565.13" cy="377.67" fill="#132e65"></circle><circle r="5" cx="1572.09" cy="542.17" fill="#132e65"></circle><circle r="5" cx="1606.3" cy="678.27" fill="#132e65"></circle><path d="M654.89 540.08L654.89 540.08" stroke="hsl(228.5, 77.2%, 51.5%)" stroke-width="1.5"></path><path d="M654.89 540.08L518.38 526.49" stroke="hsl(228.5, 77.2%, 51.5%)" stroke-width="1.5"></path><path d="M654.89 540.08L677.51 680.17" stroke="hsl(228.5, 77.2%, 51.5%)" stroke-width="1.5"></path><path d="M1580.75 535.19L1580.75 535.19" stroke="hsl(228.5, 77.2%, 51.5%)" stroke-width="1.5"></path><path d="M1580.75 535.19L1584.86 655.66" stroke="hsl(228.5, 77.2%, 51.5%)" stroke-width="1.5"></path><path d="M1580.75 535.19L1455.71 509.87" stroke="hsl(228.5, 77.2%, 51.5%)" stroke-width="1.5"></path><path d="M1580.75 535.19L1427.19 657.11" stroke="hsl(228.5, 77.2%, 51.5%)" stroke-width="1.5"></path><path d="M1580.75 535.19L1453.44 379.81" stroke="hsl(228.5, 77.2%, 51.5%)" stroke-width="1.5"></path><path d="M1580.75 535.19L1555.59 262.42" stroke="hsl(228.5, 77.2%, 51.5%)" stroke-width="1.5"></path><path d="M-92.99 537.62L-92.99 537.62" stroke="hsl(228.5, 77.2%, 51.5%)" stroke-width="1.5"></path><path d="M-92.99 537.62L-64.3 647.16" stroke="hsl(228.5, 77.2%, 51.5%)" stroke-width="1.5"></path><path d="M-64.3 647.16L-64.3 647.16" stroke="hsl(228.5, 77.2%, 51.5%)" stroke-width="1.5"></path><path d="M-64.3 647.16L54.09 695.9" stroke="hsl(228.5, 77.2%, 51.5%)" stroke-width="1.5"></path><path d="M-64.3 647.16L67.44 499.41" stroke="hsl(228.5, 77.2%, 51.5%)" stroke-width="1.5"></path><path d="M-64.3 647.16L221.61 704.28" stroke="hsl(228.5, 77.2%, 51.5%)" stroke-width="1.5"></path><path d="M-64.3 647.16L226.89 559.42" stroke="hsl(228.5, 77.2%, 51.5%)" stroke-width="1.5"></path><path d="M67.44 499.41L67.44 499.41" stroke="hsl(228.5, 77.2%, 51.5%)" stroke-width="1.5"></path><path d="M67.44 499.41L-92.99 537.62" stroke="hsl(228.5, 77.2%, 51.5%)" stroke-width="1.5"></path><path d="M67.44 499.41L226.89 559.42" stroke="hsl(228.5, 77.2%, 51.5%)" stroke-width="1.5"></path><path d="M67.44 499.41L54.09 695.9" stroke="hsl(228.5, 77.2%, 51.5%)" stroke-width="1.5"></path><path d="M54.09 695.9L54.09 695.9" stroke="hsl(228.5, 77.2%, 51.5%)" stroke-width="1.5"></path><path d="M54.09 695.9L221.61 704.28" stroke="hsl(228.5, 77.2%, 51.5%)" stroke-width="1.5"></path><path d="M226.89 559.42L226.89 559.42" stroke="hsl(228.5, 77.2%, 51.5%)" stroke-width="1.5"></path><path d="M226.89 559.42L221.61 704.28" stroke="hsl(228.5, 77.2%, 51.5%)" stroke-width="1.5"></path><path d="M226.89 559.42L361.56 498.92" stroke="hsl(228.5, 77.2%, 51.5%)" stroke-width="1.5"></path><path d="M226.89 559.42L354.84 644.65" stroke="hsl(228.5, 77.2%, 51.5%)" stroke-width="1.5"></path><path d="M226.89 559.42L54.09 695.9" stroke="hsl(228.5, 77.2%, 51.5%)" stroke-width="1.5"></path><path d="M221.61 704.28L221.61 704.28" stroke="hsl(228.5, 77.2%, 51.5%)" stroke-width="1.5"></path><path d="M221.61 704.28L354.84 644.65" stroke="hsl(228.5, 77.2%, 51.5%)" stroke-width="1.5"></path><path d="M361.56 498.92L361.56 498.92" stroke="hsl(228.5, 77.2%, 51.5%)" stroke-width="1.5"></path><path d="M361.56 498.92L354.84 644.65" stroke="hsl(228.5, 77.2%, 51.5%)" stroke-width="1.5"></path><path d="M354.84 644.65L354.84 644.65" stroke="hsl(228.5, 77.2%, 51.5%)" stroke-width="1.5"></path><path d="M354.84 644.65L541.16 680.54" stroke="hsl(228.5, 77.2%, 51.5%)" stroke-width="1.5"></path><path d="M354.84 644.65L518.38 526.49" stroke="hsl(228.5, 77.2%, 51.5%)" stroke-width="1.5"></path><path d="M354.84 644.65L54.09 695.9" stroke="hsl(228.5, 77.2%, 51.5%)" stroke-width="1.5"></path><path d="M518.38 526.49L518.38 526.49" stroke="hsl(228.5, 77.2%, 51.5%)" stroke-width="1.5"></path><path d="M518.38 526.49L541.16 680.54" stroke="hsl(228.5, 77.2%, 51.5%)" stroke-width="1.5"></path><path d="M518.38 526.49L361.56 498.92" stroke="hsl(228.5, 77.2%, 51.5%)" stroke-width="1.5"></path><path d="M518.38 526.49L671.15 395.59" stroke="hsl(228.5, 77.2%, 51.5%)" stroke-width="1.5"></path><path d="M541.16 680.54L541.16 680.54" stroke="hsl(228.5, 77.2%, 51.5%)" stroke-width="1.5"></path><path d="M541.16 680.54L677.51 680.17" stroke="hsl(228.5, 77.2%, 51.5%)" stroke-width="1.5"></path><path d="M541.16 680.54L654.89 540.08" stroke="hsl(228.5, 77.2%, 51.5%)" stroke-width="1.5"></path><path d="M541.16 680.54L361.56 498.92" stroke="hsl(228.5, 77.2%, 51.5%)" stroke-width="1.5"></path><path d="M541.16 680.54L847.47 678.12" stroke="hsl(228.5, 77.2%, 51.5%)" stroke-width="1.5"></path><path d="M671.15 395.59L671.15 395.59" stroke="hsl(228.5, 77.2%, 51.5%)" stroke-width="1.5"></path><path d="M671.15 395.59L805.9 351.7" stroke="hsl(228.5, 77.2%, 51.5%)" stroke-width="1.5"></path><path d="M671.15 395.59L654.89 540.08" stroke="hsl(228.5, 77.2%, 51.5%)" stroke-width="1.5"></path><path d="M671.15 395.59L807.8 500.57" stroke="hsl(228.5, 77.2%, 51.5%)" stroke-width="1.5"></path><path d="M677.51 680.17L677.51 680.17" stroke="hsl(228.5, 77.2%, 51.5%)" stroke-width="1.5"></path><path d="M677.51 680.17L847.47 678.12" stroke="hsl(228.5, 77.2%, 51.5%)" stroke-width="1.5"></path><path d="M677.51 680.17L518.38 526.49" stroke="hsl(228.5, 77.2%, 51.5%)" stroke-width="1.5"></path><path d="M805.9 351.7L805.9 351.7" stroke="hsl(228.5, 77.2%, 51.5%)" stroke-width="1.5"></path><path d="M805.9 351.7L807.8 500.57" stroke="hsl(228.5, 77.2%, 51.5%)" stroke-width="1.5"></path><path d="M805.9 351.7L962.42 351.6" stroke="hsl(228.5, 77.2%, 51.5%)" stroke-width="1.5"></path><path d="M805.9 351.7L975.32 253.86" stroke="hsl(228.5, 77.2%, 51.5%)" stroke-width="1.5"></path><path d="M805.9 351.7L654.89 540.08" stroke="hsl(228.5, 77.2%, 51.5%)" stroke-width="1.5"></path><path d="M805.9 351.7L998.09 524.53" stroke="hsl(228.5, 77.2%, 51.5%)" stroke-width="1.5"></path><path d="M807.8 500.57L807.8 500.57" stroke="hsl(228.5, 77.2%, 51.5%)" stroke-width="1.5"></path><path d="M807.8 500.57L654.89 540.08" stroke="hsl(228.5, 77.2%, 51.5%)" stroke-width="1.5"></path><path d="M807.8 500.57L847.47 678.12" stroke="hsl(228.5, 77.2%, 51.5%)" stroke-width="1.5"></path><path d="M807.8 500.57L998.09 524.53" stroke="hsl(228.5, 77.2%, 51.5%)" stroke-width="1.5"></path><path d="M847.47 678.12L847.47 678.12" stroke="hsl(228.5, 77.2%, 51.5%)" stroke-width="1.5"></path><path d="M847.47 678.12L985.39 638.35" stroke="hsl(228.5, 77.2%, 51.5%)" stroke-width="1.5"></path><path d="M847.47 678.12L998.09 524.53" stroke="hsl(228.5, 77.2%, 51.5%)" stroke-width="1.5"></path><path d="M847.47 678.12L654.89 540.08" stroke="hsl(228.5, 77.2%, 51.5%)" stroke-width="1.5"></path><path d="M975.32 253.86L975.32 253.86" stroke="hsl(228.5, 77.2%, 51.5%)" stroke-width="1.5"></path><path d="M975.32 253.86L962.42 351.6" stroke="hsl(228.5, 77.2%, 51.5%)" stroke-width="1.5"></path><path d="M975.32 253.86L1149.33 239.19" stroke="hsl(228.5, 77.2%, 51.5%)" stroke-width="1.5"></path><path d="M975.32 253.86L1109.82 375.16" stroke="hsl(228.5, 77.2%, 51.5%)" stroke-width="1.5"></path><path d="M975.32 253.86L998.09 524.53" stroke="hsl(228.5, 77.2%, 51.5%)" stroke-width="1.5"></path><path d="M962.42 351.6L962.42 351.6" stroke="hsl(228.5, 77.2%, 51.5%)" stroke-width="1.5"></path><path d="M962.42 351.6L1109.82 375.16" stroke="hsl(228.5, 77.2%, 51.5%)" stroke-width="1.5"></path><path d="M962.42 351.6L998.09 524.53" stroke="hsl(228.5, 77.2%, 51.5%)" stroke-width="1.5"></path><path d="M998.09 524.53L998.09 524.53" stroke="hsl(228.5, 77.2%, 51.5%)" stroke-width="1.5"></path><path d="M998.09 524.53L985.39 638.35" stroke="hsl(228.5, 77.2%, 51.5%)" stroke-width="1.5"></path><path d="M998.09 524.53L1124.96 504.41" stroke="hsl(228.5, 77.2%, 51.5%)" stroke-width="1.5"></path><path d="M985.39 638.35L985.39 638.35" stroke="hsl(228.5, 77.2%, 51.5%)" stroke-width="1.5"></path><path d="M985.39 638.35L1120.49 676.06" stroke="hsl(228.5, 77.2%, 51.5%)" stroke-width="1.5"></path><path d="M1149.33 239.19L1149.33 239.19" stroke="hsl(228.5, 77.2%, 51.5%)" stroke-width="1.5"></path><path d="M1149.33 239.19L1248.25 250.04" stroke="hsl(228.5, 77.2%, 51.5%)" stroke-width="1.5"></path><path d="M1149.33 239.19L1109.82 375.16" stroke="hsl(228.5, 77.2%, 51.5%)" stroke-width="1.5"></path><path d="M1149.33 239.19L1241.46 349.47" stroke="hsl(228.5, 77.2%, 51.5%)" stroke-width="1.5"></path><path d="M1109.82 375.16L1109.82 375.16" stroke="hsl(228.5, 77.2%, 51.5%)" stroke-width="1.5"></path><path d="M1109.82 375.16L1124.96 504.41" stroke="hsl(228.5, 77.2%, 51.5%)" stroke-width="1.5"></path><path d="M1109.82 375.16L1241.46 349.47" stroke="hsl(228.5, 77.2%, 51.5%)" stroke-width="1.5"></path><path d="M1124.96 504.41L1124.96 504.41" stroke="hsl(228.5, 77.2%, 51.5%)" stroke-width="1.5"></path><path d="M1124.96 504.41L1248.25 490.15" stroke="hsl(228.5, 77.2%, 51.5%)" stroke-width="1.5"></path><path d="M1124.96 504.41L1120.49 676.06" stroke="hsl(228.5, 77.2%, 51.5%)" stroke-width="1.5"></path><path d="M1120.49 676.06L1120.49 676.06" stroke="hsl(228.5, 77.2%, 51.5%)" stroke-width="1.5"></path><path d="M1120.49 676.06L1237.78 697.01" stroke="hsl(228.5, 77.2%, 51.5%)" stroke-width="1.5"></path><path d="M1120.49 676.06L998.09 524.53" stroke="hsl(228.5, 77.2%, 51.5%)" stroke-width="1.5"></path><path d="M1270.98 -63.62L1270.98 -63.62" stroke="hsl(228.5, 77.2%, 51.5%)" stroke-width="1.5"></path><path d="M1270.98 -63.62L1243.77 63.4" stroke="hsl(228.5, 77.2%, 51.5%)" stroke-width="1.5"></path><path d="M1270.98 -63.62L1460.72 -37.54" stroke="hsl(228.5, 77.2%, 51.5%)" stroke-width="1.5"></path><path d="M1270.98 -63.62L1456.38 100.84" stroke="hsl(228.5, 77.2%, 51.5%)" stroke-width="1.5"></path><path d="M1270.98 -63.62L1561.99 -103.44" stroke="hsl(228.5, 77.2%, 51.5%)" stroke-width="1.5"></path><path d="M1270.98 -63.62L1439.78 197.22" stroke="hsl(228.5, 77.2%, 51.5%)" stroke-width="1.5"></path><path d="M1270.98 -63.62L1248.25 250.04" stroke="hsl(228.5, 77.2%, 51.5%)" stroke-width="1.5"></path><path d="M1243.77 63.4L1243.77 63.4" stroke="hsl(228.5, 77.2%, 51.5%)" stroke-width="1.5"></path><path d="M1243.77 63.4L1248.25 250.04" stroke="hsl(228.5, 77.2%, 51.5%)" stroke-width="1.5"></path><path d="M1248.25 250.04L1248.25 250.04" stroke="hsl(228.5, 77.2%, 51.5%)" stroke-width="1.5"></path><path d="M1248.25 250.04L1241.46 349.47" stroke="hsl(228.5, 77.2%, 51.5%)" stroke-width="1.5"></path><path d="M1248.25 250.04L1109.82 375.16" stroke="hsl(228.5, 77.2%, 51.5%)" stroke-width="1.5"></path><path d="M1248.25 250.04L1439.78 197.22" stroke="hsl(228.5, 77.2%, 51.5%)" stroke-width="1.5"></path><path d="M1248.25 250.04L1248.25 490.15" stroke="hsl(228.5, 77.2%, 51.5%)" stroke-width="1.5"></path><path d="M1241.46 349.47L1241.46 349.47" stroke="hsl(228.5, 77.2%, 51.5%)" stroke-width="1.5"></path><path d="M1248.25 490.15L1248.25 490.15" stroke="hsl(228.5, 77.2%, 51.5%)" stroke-width="1.5"></path><path d="M1248.25 490.15L1241.46 349.47" stroke="hsl(228.5, 77.2%, 51.5%)" stroke-width="1.5"></path><path d="M1248.25 490.15L1109.82 375.16" stroke="hsl(228.5, 77.2%, 51.5%)" stroke-width="1.5"></path><path d="M1248.25 490.15L1237.78 697.01" stroke="hsl(228.5, 77.2%, 51.5%)" stroke-width="1.5"></path><path d="M1248.25 490.15L1455.71 509.87" stroke="hsl(228.5, 77.2%, 51.5%)" stroke-width="1.5"></path><path d="M1248.25 490.15L1120.49 676.06" stroke="hsl(228.5, 77.2%, 51.5%)" stroke-width="1.5"></path><path d="M1237.78 697.01L1237.78 697.01" stroke="hsl(228.5, 77.2%, 51.5%)" stroke-width="1.5"></path><path d="M1237.78 697.01L1427.19 657.11" stroke="hsl(228.5, 77.2%, 51.5%)" stroke-width="1.5"></path><path d="M1460.72 -37.54L1460.72 -37.54" stroke="hsl(228.5, 77.2%, 51.5%)" stroke-width="1.5"></path><path d="M1460.72 -37.54L1561.99 -103.44" stroke="hsl(228.5, 77.2%, 51.5%)" stroke-width="1.5"></path><path d="M1460.72 -37.54L1456.38 100.84" stroke="hsl(228.5, 77.2%, 51.5%)" stroke-width="1.5"></path><path d="M1456.38 100.84L1456.38 100.84" stroke="hsl(228.5, 77.2%, 51.5%)" stroke-width="1.5"></path><path d="M1456.38 100.84L1439.78 197.22" stroke="hsl(228.5, 77.2%, 51.5%)" stroke-width="1.5"></path><path d="M1439.78 197.22L1439.78 197.22" stroke="hsl(228.5, 77.2%, 51.5%)" stroke-width="1.5"></path><path d="M1439.78 197.22L1555.59 262.42" stroke="hsl(228.5, 77.2%, 51.5%)" stroke-width="1.5"></path><path d="M1439.78 197.22L1453.44 379.81" stroke="hsl(228.5, 77.2%, 51.5%)" stroke-width="1.5"></path><path d="M1453.44 379.81L1453.44 379.81" stroke="hsl(228.5, 77.2%, 51.5%)" stroke-width="1.5"></path><path d="M1453.44 379.81L1455.71 509.87" stroke="hsl(228.5, 77.2%, 51.5%)" stroke-width="1.5"></path><path d="M1453.44 379.81L1555.59 262.42" stroke="hsl(228.5, 77.2%, 51.5%)" stroke-width="1.5"></path><path d="M1455.71 509.87L1455.71 509.87" stroke="hsl(228.5, 77.2%, 51.5%)" stroke-width="1.5"></path><path d="M1455.71 509.87L1427.19 657.11" stroke="hsl(228.5, 77.2%, 51.5%)" stroke-width="1.5"></path><path d="M1427.19 657.11L1427.19 657.11" stroke="hsl(228.5, 77.2%, 51.5%)" stroke-width="1.5"></path><path d="M1427.19 657.11L1584.86 655.66" stroke="hsl(228.5, 77.2%, 51.5%)" stroke-width="1.5"></path><path d="M1561.99 -103.44L1561.99 -103.44" stroke="hsl(228.5, 77.2%, 51.5%)" stroke-width="1.5"></path><path d="M1561.99 -103.44L1456.38 100.84" stroke="hsl(228.5, 77.2%, 51.5%)" stroke-width="1.5"></path><path d="M1555.59 262.42L1555.59 262.42" stroke="hsl(228.5, 77.2%, 51.5%)" stroke-width="1.5"></path><path d="M1555.59 262.42L1456.38 100.84" stroke="hsl(228.5, 77.2%, 51.5%)" stroke-width="1.5"></path><path d="M1555.59 262.42L1455.71 509.87" stroke="hsl(228.5, 77.2%, 51.5%)" stroke-width="1.5"></path><path d="M1584.86 655.66L1584.86 655.66" stroke="hsl(228.5, 77.2%, 51.5%)" stroke-width="1.5"></path><path d="M1584.86 655.66L1455.71 509.87" stroke="hsl(228.5, 77.2%, 51.5%)" stroke-width="1.5"></path><path d="M1584.86 655.66L1453.44 379.81" stroke="hsl(228.5, 77.2%, 51.5%)" stroke-width="1.5"></path><path d="M1584.86 655.66L1237.78 697.01" stroke="hsl(228.5, 77.2%, 51.5%)" stroke-width="1.5"></path><path d="M1584.86 655.66L1248.25 490.15" stroke="hsl(228.5, 77.2%, 51.5%)" stroke-width="1.5"></path><circle r="25" cx="654.89" cy="540.08" fill="url(&quot;#SvgjsRadialGradient1001&quot;)"></circle><circle r="25" cx="1580.75" cy="535.19" fill="url(&quot;#SvgjsRadialGradient1001&quot;)"></circle><circle r="5" cx="-92.99" cy="537.62" fill="#8b9ad9"></circle><circle r="5" cx="-64.3" cy="647.16" fill="#8b9ad9"></circle><circle r="5" cx="67.44" cy="499.41" fill="#8b9ad9"></circle><circle r="5" cx="54.09" cy="695.9" fill="#8b9ad9"></circle><circle r="5" cx="226.89" cy="559.42" fill="#8b9ad9"></circle><circle r="5" cx="221.61" cy="704.28" fill="#8b9ad9"></circle><circle r="5" cx="361.56" cy="498.92" fill="#8b9ad9"></circle><circle r="5" cx="354.84" cy="644.65" fill="#8b9ad9"></circle><circle r="5" cx="518.38" cy="526.49" fill="#8b9ad9"></circle><circle r="5" cx="541.16" cy="680.54" fill="#8b9ad9"></circle><circle r="5" cx="671.15" cy="395.59" fill="#8b9ad9"></circle><circle r="5" cx="677.51" cy="680.17" fill="#8b9ad9"></circle><circle r="5" cx="805.9" cy="351.7" fill="#8b9ad9"></circle><circle r="5" cx="807.8" cy="500.57" fill="#8b9ad9"></circle><circle r="5" cx="847.47" cy="678.12" fill="#8b9ad9"></circle><circle r="5" cx="975.32" cy="253.86" fill="#8b9ad9"></circle><circle r="5" cx="962.42" cy="351.6" fill="#8b9ad9"></circle><circle r="5" cx="998.09" cy="524.53" fill="#8b9ad9"></circle><circle r="5" cx="985.39" cy="638.35" fill="#8b9ad9"></circle><circle r="5" cx="1149.33" cy="239.19" fill="#8b9ad9"></circle><circle r="5" cx="1109.82" cy="375.16" fill="#8b9ad9"></circle><circle r="5" cx="1124.96" cy="504.41" fill="#8b9ad9"></circle><circle r="5" cx="1120.49" cy="676.06" fill="#8b9ad9"></circle><circle r="5" cx="1270.98" cy="-63.62" fill="#8b9ad9"></circle><circle r="5" cx="1243.77" cy="63.4" fill="#8b9ad9"></circle><circle r="5" cx="1248.25" cy="250.04" fill="#8b9ad9"></circle><circle r="5" cx="1241.46" cy="349.47" fill="#8b9ad9"></circle><circle r="5" cx="1248.25" cy="490.15" fill="#8b9ad9"></circle><circle r="5" cx="1237.78" cy="697.01" fill="#8b9ad9"></circle><circle r="5" cx="1460.72" cy="-37.54" fill="#8b9ad9"></circle><circle r="5" cx="1456.38" cy="100.84" fill="#8b9ad9"></circle><circle r="5" cx="1439.78" cy="197.22" fill="#8b9ad9"></circle><circle r="5" cx="1453.44" cy="379.81" fill="#8b9ad9"></circle><circle r="5" cx="1455.71" cy="509.87" fill="#8b9ad9"></circle><circle r="5" cx="1427.19" cy="657.11" fill="#8b9ad9"></circle><circle r="5" cx="1561.99" cy="-103.44" fill="#8b9ad9"></circle><circle r="5" cx="1555.59" cy="262.42" fill="#8b9ad9"></circle><circle r="5" cx="1584.86" cy="655.66" fill="#8b9ad9"></circle></g><defs><mask id="SvgjsMask1000"><rect width="1440" height="560" fill="#ffffff"></rect></mask><radialGradient id="SvgjsRadialGradient1001"><stop stop-color="#ffffff" offset="0.1"></stop><stop stop-color="#1735b3" offset="0.2"></stop><stop stop-color="rgba(23, 53, 179, 0)" offset="1"></stop></radialGradient></defs></svg>