<svg width="1546" height="530" viewBox="0 0 1546 530" fill="none" xmlns="http://www.w3.org/2000/svg">
<path d="M750.92 0.410034C684.007 9.47823 507.28 32.914 485.21 67.379C468.982 92.717 725.02 115.919 599.5 145.509C444.16 182.128 234.99 201.855 59.5 258.979C-218.11 349.353 566.86 485.769 685.21 526.849L1545.21 529.744C1027.51 428.974 216.11 325.144 393.71 271.974C571.98 218.604 604.09 211.854 768.01 158.494C887.41 119.624 588.04 82.6643 553.72 63.6243C500.88 34.3143 714.01 10.5143 765.81 0.924316L750.92 0.410034Z" fill="#005A98"/>
<path d="M756.92 1.07001C734.482 4.05341 712.068 7.2252 689.697 10.6806C662.363 14.9024 635.078 19.495 607.967 25.0076C595.527 27.5373 583.121 30.2612 570.814 33.4009C560.768 35.9634 550.757 38.7591 541.001 42.3336C537.266 43.7019 533.562 45.1906 529.974 46.9457C527.246 48.2781 524.549 49.7619 522.114 51.6503C520.428 52.9424 518.786 54.5005 517.849 56.5486C517.488 57.349 517.273 58.2325 517.276 59.1407C517.286 60.0535 517.519 60.9425 517.911 61.7408C518.306 62.5237 518.882 63.1406 519.47 63.6533C520.301 64.3928 521.209 65.0115 522.126 65.5742C524.788 67.2123 527.627 68.4964 530.465 69.6973C534.374 71.3543 538.354 72.824 542.349 74.2251C547.246 75.9431 552.179 77.5498 557.124 79.1066C568.909 82.8167 580.774 86.2537 592.641 89.6555C605.617 93.3746 618.608 97.03 631.569 100.774C643.905 104.336 656.219 107.962 668.433 111.878C678.335 115.053 688.19 118.347 697.728 122.371C701.173 123.825 704.565 125.36 707.78 127.175C709.992 128.437 712.135 129.729 713.747 131.46C714.268 132.029 714.721 132.595 714.948 133.19C715.114 133.63 715.192 134.089 715.086 134.45C715.011 134.872 714.68 135.304 714.278 135.723C713.684 136.317 712.892 136.78 712.036 137.218C711.109 137.684 710.089 138.055 709.032 138.441C707.353 139.051 705.647 139.612 703.929 140.162C698.701 141.833 693.42 143.366 688.125 144.879C671.445 149.642 654.671 154.096 637.883 158.517C589.264 171.321 540.509 183.616 491.743 195.87C441.005 208.619 390.233 221.246 339.473 233.904C320.165 238.718 300.855 243.534 281.555 248.397C269.94 251.323 258.302 254.222 246.701 257.331C239.395 259.287 232.107 261.542 225.036 264.487C220.017 266.566 215.003 269.033 210.48 272.421C208.789 273.689 207.162 275.128 205.709 276.794C204.493 278.185 203.416 279.771 202.607 281.553C201.887 283.15 201.435 284.886 201.312 286.681C201.201 288.476 201.418 290.249 201.9 291.917C203.086 295.892 205.405 299.228 207.974 301.996C211.464 305.823 215.489 308.995 219.6 311.832C224.969 315.551 230.61 318.79 236.323 321.786C243.355 325.475 250.547 328.811 257.798 331.949C276.033 339.839 294.714 346.574 313.488 352.864C336.645 360.623 360.028 367.654 383.493 374.32C439.699 390.286 496.443 404.226 553.323 417.421C615.647 431.88 678.193 445.335 740.833 458.266C800.3 470.541 859.863 482.32 919.483 493.815C967.198 503.015 1014.95 512.007 1062.68 521.018C1079 523.5 1092 525.5 1109 528C1115 528 1131.5 528.5 1137.5 528.5C1142 528.5 1143.5 528.5 1148 528.5H1152.5C1148.11 527.557 1137.08 525.211 1132.72 524.356C1126.65 523.165 1120.58 522.011 1114.51 520.868C1097.82 517.723 1081.13 514.659 1064.44 511.596C1016.65 502.824 968.873 494.076 921.137 485.12C861.493 473.93 801.907 462.458 742.417 450.491C679.757 437.931 617.207 424.811 554.877 410.681C497.997 397.781 441.287 384.151 385.147 368.511C361.708 361.979 338.379 355.093 315.297 347.487C296.575 341.316 278.01 334.732 259.945 327.019C252.764 323.953 245.677 320.711 238.782 317.135C233.175 314.226 227.703 311.126 222.563 307.597C218.621 304.881 214.877 301.986 211.773 298.588C209.534 296.088 207.578 293.441 206.789 290.563C206.455 289.398 206.292 288.202 206.367 287.054C206.432 285.909 206.734 284.75 207.214 283.657C207.753 282.416 208.561 281.237 209.508 280.123C210.651 278.783 212.017 277.576 213.493 276.446C217.475 273.397 222.123 271.109 226.939 269.059C233.704 266.194 240.779 263.972 247.958 262.006C259.488 258.852 271.09 255.901 282.698 252.914C301.966 247.956 321.248 243.044 340.532 238.132C391.231 225.219 441.942 212.337 492.622 199.331C541.331 186.831 590.036 174.287 638.612 161.234C655.382 156.728 672.151 152.185 688.837 147.329C694.131 145.788 699.429 144.221 704.69 142.51C706.418 141.948 708.151 141.369 709.873 140.733C710.933 140.345 712.034 139.933 713.121 139.386C714.093 138.904 715.079 138.295 715.947 137.455C716.587 136.851 717.129 136.036 717.387 135.037C717.588 134.09 717.469 133.158 717.126 132.356C716.708 131.38 716.098 130.578 715.45 129.915C713.522 127.913 711.192 126.492 708.916 125.238C705.573 123.376 702.097 121.82 698.608 120.371C688.945 116.354 679.016 113.089 669.081 109.96C656.815 106.095 644.465 102.527 632.105 99.0247C619.117 95.3442 606.107 91.7541 593.118 88.1017C581.236 84.7608 569.368 81.3875 557.587 77.7437C552.644 76.2147 547.718 74.6377 542.832 72.9512C538.846 71.5748 534.886 70.1356 531.006 68.5141C528.184 67.3325 525.398 66.0933 522.823 64.5231C521.939 63.9824 521.089 63.4133 520.341 62.7502C519.814 62.2732 519.334 61.7894 519.071 61.2348C518.753 60.5869 518.558 59.8808 518.553 59.1822C518.541 58.4852 518.716 57.7738 519.007 57.1077C519.767 55.3453 521.28 53.9337 522.882 52.6591C525.204 50.8336 527.824 49.3791 530.511 48.0456C534.039 46.2968 537.699 44.8049 541.406 43.4251C551.088 39.8209 561.054 36.9849 571.073 34.3746C583.344 31.1783 595.723 28.395 608.142 25.8043C635.207 20.1584 662.462 15.4303 689.772 11.0713C712.123 7.50389 734.52 4.21949 756.942 1.12329L756.92 1.07001Z" fill="#BCE8FF"/>
</svg>
